<svg width="160" height="161" viewBox="0 0 160 161" fill="none" xmlns="http://www.w3.org/2000/svg">
<g clip-path="url(#clip0_459_44185)">
<path d="M134.439 49.835C140.973 43.6416 138.518 32.7155 129.963 29.9124L73.5057 11.4136C66.4965 9.11694 58.8255 11.9094 54.9331 18.1746L34.5472 50.9872C31.4491 55.9738 31.3307 62.2567 34.2387 67.3565L35.1401 68.9372C38.1902 74.2862 37.9001 80.911 34.394 85.973L17.9187 109.76C13.6138 115.975 14.247 124.355 19.437 129.853L28.3559 139.301C32.9518 144.17 40.0929 145.662 46.2538 143.041L91.5419 123.776C94.8429 122.372 97.5763 119.899 99.3031 116.755L104.645 107.028C106.77 103.158 110.401 100.338 114.676 99.2365L128.174 95.7582C139.267 92.8995 143.85 79.6506 136.894 70.5489L133.172 65.6796C129.482 60.8508 130.028 54.0161 134.439 49.835Z" fill="#ABADAF"/>
</g>
<defs>
<clipPath id="clip0_459_44185">
<rect width="160" height="160" fill="white" transform="translate(0 0.270508)"/>
</clipPath>
</defs>
</svg>
