<svg width="450" height="500" viewBox="0 0 450 500" fill="none" xmlns="http://www.w3.org/2000/svg">
<style type="text/css">
    path {
        transform-origin: 50% 50%;
        stroke-width: 2;
        stroke-linecap: round;
        animation: clockwise-distortion 10s infinite linear;  
    }

    #global-path {
        animation: counter-clockwise-distortion 7.5s infinite linear;
    }

    #regional-path {
        animation: counter-clockwise-distortion 12.5s infinite linear;
    }

    #small-path {
        animation: counter-clockwise-distortion 10s infinite linear;
    }

    @keyframes counter-clockwise-distortion {
        0% {
            transform: rotateZ(0deg);
            stroke-dashoffset: 0;
        }

        25% {
            transform: rotateZ(5deg);
        }

        50% {
            stroke-dashoffset: 100;
        }

        75% {
            transform: rotateZ(-5deg);
        }

        100% {
            transform: rotateZ(0deg);
            stroke-dashoffset: 0;
        }
    }

    @keyframes clockwise-distortion {
        0% {
            transform: rotateZ(0deg);
            stroke-dashoffset: -100;
        }

        25% {
            transform: rotateZ(-10deg);
        }

        50% {
            stroke-dashoffset: 0;
        }

        75% {
            transform: rotateZ(10deg);
        }

        100% {
            transform: rotateZ(0deg);
            stroke-dashoffset: -100;
        }
    }


</style>
<g clip-path="url(#clip0_669_60924)">
<path id="global-path" d="M373.607 33.2709C405.831 23.2483 437.212 50.9456 431.269 84.1644L410.47 200.437C409.658 204.973 408.155 209.358 406.013 213.437L350.251 319.61C347.445 324.953 345.742 330.806 345.244 336.82L337.498 430.358C334.933 461.325 302.501 480.435 274.17 467.673L91.5929 385.433C80.2731 380.334 71.5629 370.785 67.5232 359.045L24.464 233.912C19.8445 220.488 21.831 205.671 29.8233 193.937L103.715 85.4548C112.301 72.8493 126.688 65.4508 141.936 65.7996L252.957 68.3391C257.833 68.4507 262.694 67.7689 267.351 66.3204L373.607 33.2709Z" stroke="#B35900" stroke-width="1.5"/>
<path id="national-path" d="M143.376 374.499C131.274 370.73 121.322 362.032 115.967 350.542L71.9611 256.12C69.1866 250.167 67.7489 243.678 67.7489 237.11L67.7489 213.584C67.7489 206.755 69.3029 200.017 72.2931 193.878L111.444 113.502C119.295 97.3849 135.963 87.4652 153.872 88.2509L331.775 96.056C354.782 97.0654 373.315 115.283 374.719 138.27L377.557 184.743C378.011 192.186 376.609 199.624 373.477 206.39L305.049 354.209C302.379 359.975 298.519 365.111 293.722 369.278L268.562 391.132C256.789 401.358 240.562 404.76 225.674 400.124L143.376 374.499Z" stroke="#B35900" stroke-width="1.5"/>
<path id="regional-path" d="M247.571 125.581C275.227 117.558 303.197 137.216 305.017 165.954L307.241 201.045L309.41 239.666C310.031 250.72 306.555 261.615 299.647 270.267L253.05 328.629C241.863 342.64 223.426 348.674 206.12 343.987L184.658 338.174C170.809 334.423 159.579 324.293 154.425 310.903L129.409 245.905C123.931 231.672 126.034 215.634 134.997 203.295L167.402 158.683C173.276 150.596 181.675 144.695 191.274 141.911L247.571 125.581Z" stroke="#B35900" stroke-width="1.5"/>
<path id="local-path" d="M268.387 191.408C290.162 196.388 298.912 222.676 284.464 239.712L283.952 240.315C281.439 243.278 278.38 245.729 274.94 247.536L251.899 259.634C247.112 262.147 243.764 266.742 242.837 272.069V272.069C240.345 286.398 222.427 291.54 212.715 280.713L192.948 258.675C182.651 247.195 182.083 229.978 191.602 217.844L208.724 196.018C220.6 180.88 241.932 177.039 258.343 187.083L259.477 187.777C262.23 189.462 265.24 190.689 268.387 191.408V191.408Z" stroke="#B35900" stroke-width="1.5"/>
<path id="small-path" d="M250.39 207.042C261.528 209.589 266.004 223.036 258.613 231.75L258.352 232.058C257.066 233.574 255.501 234.828 253.742 235.752L241.956 241.94C239.507 243.226 237.795 245.576 237.321 248.301V248.301C236.046 255.631 226.88 258.261 221.913 252.723L211.801 241.45C206.534 235.577 206.244 226.771 211.113 220.564L219.871 209.4C225.946 201.656 236.858 199.691 245.252 204.829L245.832 205.184C247.241 206.046 248.78 206.674 250.39 207.042V207.042Z" stroke="#B35900" stroke-width="1.5"/>
<path id="mini-path" d="M240.596 219.68C244.131 220.488 245.551 224.756 243.206 227.521L243.123 227.619C242.715 228.1 242.218 228.498 241.66 228.791L237.92 230.755C237.143 231.163 236.599 231.909 236.449 232.773V232.773C236.045 235.099 233.136 235.934 231.56 234.176L228.351 230.599C226.679 228.736 226.587 225.941 228.132 223.971L230.912 220.428C232.839 217.971 236.302 217.348 238.966 218.978L239.15 219.091C239.597 219.364 240.085 219.563 240.596 219.68V219.68Z" stroke="#B35900" stroke-width="1.5"/>
</g>
<defs>
<clipPath id="clip0_669_60924">
<rect width="450" height="500" fill="white"/>
</clipPath>
</defs>
</svg>
