<svg width="133" height="60" viewBox="0 0 133 60" fill="none" xmlns="http://www.w3.org/2000/svg">
<path d="M7.61526 54.3026C7.41975 54.2264 7.22092 54.1882 7.02209 54.1882C6.90279 54.1882 6.78681 54.1998 6.67414 54.2247C6.56147 54.2496 6.4604 54.2844 6.36927 54.3324C6.27814 54.3805 6.20358 54.4369 6.14725 54.4998C6.09091 54.5645 6.06275 54.6357 6.06275 54.7153C6.06275 54.7949 6.09423 54.8678 6.15885 54.9308C6.22347 54.9938 6.30631 55.0534 6.4107 55.1048C6.51508 55.1562 6.63272 55.2009 6.76362 55.2374C6.89451 55.2739 7.02872 55.307 7.16459 55.3402C7.4678 55.4114 7.75941 55.4943 8.03943 55.5855C8.31944 55.6766 8.56467 55.7976 8.77675 55.9451C8.98883 56.0926 9.15618 56.2783 9.28045 56.502C9.40471 56.7258 9.46602 57.0092 9.46602 57.3523C9.46602 57.7202 9.39643 58.0269 9.25559 58.2755C9.11641 58.5241 8.9325 58.7246 8.70385 58.8804C8.47519 59.0362 8.22169 59.1473 7.94333 59.2152C7.66331 59.2832 7.37998 59.318 7.09334 59.318C6.80669 59.318 6.5068 59.2865 6.21849 59.2219C5.93019 59.1572 5.67338 59.0644 5.44472 58.9401C5.21773 58.8158 5.0305 58.665 4.888 58.4843C4.74385 58.3053 4.67261 58.1031 4.67261 57.8793C4.67261 57.6556 4.74054 57.4617 4.87641 57.3224C5.01227 57.1832 5.15145 57.112 5.2956 57.112C5.3917 57.112 5.50271 57.1434 5.63195 57.2081C5.75953 57.2727 5.8722 57.3672 5.96665 57.4965C6.07766 57.649 6.23175 57.7749 6.42892 57.8744C6.62444 57.9738 6.83818 58.0235 7.07014 58.0235C7.20601 58.0235 7.33856 58.0037 7.46614 57.9639C7.59372 57.9241 7.70639 57.8694 7.80249 57.8014C7.89859 57.7335 7.97647 57.6539 8.03611 57.5611C8.09576 57.47 8.12559 57.3672 8.12559 57.2562C8.12559 57.1766 8.10736 57.1037 8.07091 57.0407C8.03446 56.9777 7.9715 56.9164 7.87871 56.8617C7.78758 56.8053 7.66331 56.7523 7.50756 56.6993C7.35181 56.6479 7.15796 56.5932 6.92599 56.5368C6.67746 56.4722 6.42726 56.4026 6.17045 56.3263C5.91528 56.2501 5.68332 56.1473 5.4762 56.0147C5.26909 55.8821 5.09843 55.7131 4.96754 55.5059C4.83498 55.2987 4.77036 55.0352 4.77036 54.7153C4.77036 54.3954 4.83333 54.1352 4.96256 53.9114C5.09015 53.6877 5.25915 53.5037 5.47123 53.3595C5.68332 53.2153 5.92191 53.1092 6.19033 53.0413C6.45875 52.9733 6.73545 52.9402 7.02375 52.9402C7.20766 52.9402 7.42969 52.9634 7.68817 53.0115C7.9483 53.0595 8.19518 53.1341 8.43046 53.2336C8.66574 53.333 8.86622 53.4656 9.03025 53.6297C9.19429 53.7938 9.27548 53.996 9.27548 54.2346C9.27548 54.4352 9.21583 54.596 9.09653 54.7203C8.97723 54.8446 8.82811 54.9059 8.65248 54.9059C8.5481 54.9059 8.44703 54.881 8.34761 54.8346C8.2482 54.7866 8.15707 54.7153 8.07754 54.6192C7.96487 54.4833 7.81243 54.3772 7.61692 54.3009L7.61526 54.3026Z" fill="white"/>
<path d="M11.0004 52.7496V51.7419C11.0004 51.5264 11.0633 51.3441 11.1926 51.1966C11.3201 51.0491 11.5041 50.9745 11.7443 50.9745C11.9846 50.9745 12.1668 51.0491 12.2961 51.1966C12.4236 51.3441 12.4883 51.5264 12.4883 51.7419V53.1325H12.871C13.0384 53.1325 13.1842 53.1938 13.3084 53.3181C13.4327 53.4424 13.494 53.5883 13.494 53.7557C13.494 53.9231 13.4327 54.0689 13.3084 54.1932C13.1842 54.3175 13.0384 54.3789 12.871 54.3789H12.4883V58.5026C12.4883 58.718 12.4236 58.9003 12.2961 59.0479C12.1685 59.1954 11.9846 59.27 11.7443 59.27C11.5041 59.27 11.3201 59.1954 11.1926 59.0479C11.065 58.9003 11.0004 58.718 11.0004 58.5026V54.3789H10.6176C10.4503 54.3789 10.3045 54.3175 10.1802 54.1932C10.0559 54.0689 9.99463 53.9231 9.99463 53.7557C9.99463 53.5883 10.0559 53.4424 10.1802 53.3181C10.3045 53.1938 10.4503 53.1325 10.6176 53.1325C10.8728 53.1325 11.0004 53.0048 11.0004 52.7496Z" fill="white"/>
<path d="M18.0455 53.6612C18.0455 53.4689 18.1151 53.3015 18.2559 53.1573C18.3951 53.0131 18.5658 52.9418 18.7646 52.9418C18.9634 52.9418 19.1341 53.0131 19.2733 53.1573C19.4124 53.3015 19.4837 53.4689 19.4837 53.6612V58.5042C19.4837 58.6964 19.4141 58.8639 19.2733 59.008C19.1341 59.1522 18.9634 59.2235 18.7646 59.2235C18.5658 59.2235 18.405 59.1522 18.2609 59.008C18.1167 58.8639 18.0455 58.6964 18.0455 58.5042C17.8848 58.776 17.6512 58.9882 17.3446 59.139C17.0364 59.2915 16.6802 59.3661 16.2726 59.3661C15.6248 59.3661 15.1194 59.1589 14.7565 58.7429C14.3937 58.3268 14.2114 57.6887 14.2114 56.8252V53.6612C14.2114 53.4689 14.281 53.3015 14.4219 53.1573C14.561 53.0131 14.7317 52.9418 14.9305 52.9418C15.1293 52.9418 15.3 53.0131 15.4392 53.1573C15.5784 53.3015 15.648 53.4689 15.648 53.6612V56.8252C15.648 57.2644 15.7341 57.5827 15.9064 57.7782C16.0788 57.9738 16.2792 58.0716 16.5112 58.0716C16.6786 58.0716 16.8525 58.0302 17.0331 57.9456C17.2121 57.8611 17.3761 57.7451 17.5236 57.5976C17.671 57.4501 17.7953 57.276 17.8947 57.0755C17.9941 56.8749 18.0438 56.6644 18.0438 56.4407V53.6595L18.0455 53.6612Z" fill="white"/>
<path d="M24.756 51.4303C24.756 51.2148 24.8156 51.0408 24.9349 50.9082C25.0542 50.7772 25.2348 50.7109 25.4734 50.7109C25.712 50.7109 25.8926 50.7772 26.0119 50.9082C26.1312 51.0408 26.1909 51.2131 26.1909 51.4303V58.5987C26.1909 58.6782 26.1693 58.7611 26.1246 58.844C26.0799 58.9285 26.0252 58.9998 25.9572 59.0594C25.8893 59.1191 25.8131 59.1688 25.7302 59.2086C25.6474 59.2484 25.5612 59.2683 25.4734 59.2683C25.3856 59.2683 25.2995 59.2484 25.2166 59.2086C25.1321 59.1688 25.0559 59.1191 24.9896 59.0594C24.9217 58.9998 24.8653 58.9268 24.8223 58.844C24.7775 58.7594 24.756 58.6782 24.756 58.5987C24.5157 58.8141 24.2506 58.9882 23.959 59.1208C23.6674 59.2534 23.3427 59.318 22.9831 59.318C22.6484 59.318 22.322 59.2534 22.0072 59.1257C21.6907 58.9981 21.4124 58.8025 21.1688 58.539C20.9252 58.2755 20.7281 57.9456 20.5756 57.5495C20.4232 57.1534 20.3486 56.6876 20.3486 56.1523C20.3486 55.6169 20.4199 55.1612 20.564 54.7617C20.7082 54.3623 20.9004 54.0258 21.139 53.754C21.3792 53.4822 21.6543 53.2783 21.9658 53.1424C22.2773 53.0065 22.6004 52.9385 22.9367 52.9385C23.2482 52.9385 23.568 52.9965 23.8961 53.1126C24.2241 53.2286 24.5108 53.4026 24.7593 53.6347V51.4286L24.756 51.4303ZM24.756 56.1888C24.756 55.8772 24.7113 55.6037 24.6234 55.3683C24.5356 55.133 24.4213 54.9324 24.2821 54.7683C24.1429 54.6043 23.9839 54.4833 23.8082 54.402C23.6326 54.3225 23.452 54.2827 23.2697 54.2827C23.0875 54.2827 22.9201 54.3225 22.7478 54.402C22.5755 54.4816 22.4231 54.5993 22.2872 54.7551C22.1513 54.9109 22.042 55.1048 21.9575 55.3368C21.873 55.5689 21.8316 55.8407 21.8316 56.1523C21.8316 56.4639 21.873 56.7341 21.9575 56.9611C22.042 57.1882 22.1497 57.3788 22.2806 57.5313C22.4131 57.6838 22.5656 57.7948 22.7412 57.8661C22.9168 57.9374 23.0925 57.9738 23.2681 57.9738C23.4437 57.9738 23.631 57.9374 23.8066 57.8661C23.9822 57.7948 24.1396 57.6871 24.2805 57.5429C24.4196 57.3987 24.534 57.218 24.6218 56.9976C24.7096 56.7772 24.7543 56.5236 24.7543 56.2368V56.1888H24.756Z" fill="white"/>
<path d="M27.1997 51.5744C27.1997 51.4634 27.2212 51.354 27.266 51.2512C27.3091 51.1468 27.3704 51.0573 27.4449 50.9811C27.5211 50.9048 27.609 50.8452 27.7084 50.8021C27.8078 50.759 27.9188 50.7358 28.0381 50.7358C28.2701 50.7358 28.4672 50.8187 28.6313 50.9811C28.7953 51.1452 28.8765 51.3424 28.8765 51.5744C28.8765 51.6938 28.855 51.8048 28.8102 51.9043C28.7655 52.0037 28.7058 52.0916 28.6313 52.1678C28.5551 52.244 28.4656 52.3037 28.3612 52.3468C28.2568 52.3916 28.1491 52.4131 28.0381 52.4131C27.8061 52.4131 27.609 52.3319 27.4449 52.1678C27.2809 52.0037 27.1997 51.8065 27.1997 51.5744ZM28.782 58.5506C28.782 58.7661 28.7108 58.9401 28.5667 59.0727C28.4225 59.2036 28.2469 59.2699 28.0398 59.2699C27.8326 59.2699 27.657 59.2036 27.5129 59.0727C27.3687 58.9401 27.2975 58.7677 27.2975 58.5506V53.6595C27.2975 53.444 27.3687 53.27 27.5129 53.1374C27.657 53.0065 27.8326 52.9402 28.0398 52.9402C28.2469 52.9402 28.4225 53.0065 28.5667 53.1374C28.7108 53.27 28.782 53.4424 28.782 53.6595V58.5506Z" fill="white"/>
<path d="M29.7166 54.8529C29.8608 54.4568 30.0646 54.1137 30.328 53.822C30.5915 53.5303 30.9096 53.3032 31.2807 53.1391C31.6519 52.975 32.0661 52.8938 32.5217 52.8938C32.9774 52.8938 33.39 52.9767 33.7628 53.1391C34.1339 53.3032 34.452 53.5303 34.7155 53.822C34.9789 54.1137 35.1827 54.4568 35.3269 54.8529C35.471 55.249 35.5423 55.6816 35.5423 56.154C35.5423 56.6263 35.471 57.0473 35.3269 57.4418C35.1827 57.8363 34.9789 58.1777 34.7155 58.4611C34.452 58.7445 34.1339 58.9666 33.7628 59.1258C33.3916 59.2849 32.9774 59.3661 32.5217 59.3661C32.0661 59.3661 31.6535 59.2865 31.2807 59.1258C30.9096 58.9666 30.5915 58.7445 30.328 58.4611C30.0646 58.1777 29.8608 57.8379 29.7166 57.4418C29.5725 57.0457 29.5012 56.6164 29.5012 56.154C29.5012 55.6916 29.5725 55.249 29.7166 54.8529ZM31.0952 56.9214C31.1664 57.1617 31.2691 57.3705 31.4 57.5512C31.5309 57.7302 31.6916 57.8711 31.8789 57.9705C32.0661 58.07 32.2798 58.1197 32.5201 58.1197C32.7603 58.1197 32.9757 58.07 33.1679 57.9705C33.3601 57.8711 33.5209 57.7302 33.6534 57.5512C33.786 57.3722 33.8854 57.1617 33.9533 56.9214C34.0212 56.681 34.0544 56.4258 34.0544 56.154C34.0544 55.8822 34.0196 55.612 33.9533 55.3683C33.8854 55.1247 33.786 54.9126 33.6534 54.7336C33.5225 54.5546 33.3601 54.4104 33.1679 54.3026C32.9757 54.1949 32.7603 54.1402 32.5201 54.1402C32.2798 54.1402 32.0661 54.1949 31.8789 54.3026C31.6916 54.4104 31.5309 54.5546 31.4 54.7336C31.2675 54.9126 31.1664 55.1247 31.0952 55.3683C31.0239 55.612 30.9875 55.8739 30.9875 56.154C30.9875 56.4341 31.0239 56.681 31.0952 56.9214Z" fill="white"/>
<path d="M2.82024 9.4176C3.24441 9.46733 3.61721 9.36456 3.93865 9.10932C4.26009 8.85407 4.44566 8.51596 4.49537 8.09165C4.63289 6.90493 4.99244 5.81268 5.57235 4.81325C6.15227 3.81547 6.88296 2.96686 7.76277 2.27074C8.64259 1.57462 9.63507 1.0575 10.7402 0.722695C11.8454 0.387893 12.9903 0.288447 14.1766 0.426014L21.7818 1.31109C22.3418 1.37573 22.8538 1.54313 23.3211 1.81329C23.7883 2.08345 24.186 2.42654 24.5157 2.84256C24.8454 3.25857 25.0873 3.72597 25.2414 4.24309C25.3955 4.76021 25.4402 5.29722 25.3756 5.85743L25.3193 6.3414C25.2613 6.83366 25.1155 7.28448 24.8785 7.69553C24.6416 8.10657 24.3384 8.45795 23.9689 8.74966C23.5994 9.04137 23.1885 9.25683 22.7345 9.39274C22.2805 9.52865 21.8083 9.56843 21.3162 9.51042C20.8241 9.45241 20.3734 9.30655 19.9625 9.06954C19.5516 8.83253 19.207 8.53916 18.9303 8.18944C18.6536 7.83972 18.4465 7.43697 18.3106 6.98283C18.1747 6.52869 18.135 6.05632 18.193 5.56407L18.2526 5.05523C18.2857 4.76684 18.2128 4.50994 18.0339 4.28121C17.8549 4.05248 17.6197 3.9232 17.3314 3.89006L17.3065 3.88674C17.0348 3.85525 16.7962 3.92155 16.5874 4.08729C16.3787 4.25303 16.2594 4.47016 16.2279 4.74198L16.1782 5.17457C16.087 5.95522 16.15 6.70935 16.3654 7.44028C16.5808 8.17121 16.9205 8.82921 17.386 9.41595C17.85 10.0027 18.4133 10.485 19.0744 10.8629C19.7355 11.2408 20.4546 11.4745 21.235 11.5656L21.7437 11.6253C22.2689 11.6866 22.6964 11.9253 23.0261 12.3413C23.3559 12.7573 23.4901 13.2297 23.4288 13.7551L23.4139 13.8827C23.3492 14.4429 23.0941 14.8987 22.6484 15.2501C22.2027 15.6015 21.7023 15.7457 21.1422 15.6811L17.0729 15.207C16.5129 15.1424 16.0108 15.2849 15.5668 15.638C15.1211 15.9893 14.8676 16.4468 14.8013 17.0053L14.5643 19.0407C14.4997 19.6009 14.2446 20.0567 13.7989 20.4081C13.3532 20.7611 12.8511 20.9036 12.2927 20.839L5.17138 20.0103C4.61135 19.9456 4.1557 19.6904 3.80444 19.2445C3.45152 18.8003 3.30903 18.2981 3.37364 17.7379L3.61058 15.7026C3.6752 15.1424 3.53271 14.6402 3.17979 14.196C2.82687 13.7518 2.37122 13.4966 1.81284 13.4303C1.25281 13.3656 0.797165 13.1104 0.445902 12.6645C0.0929826 12.2203 -0.0495108 11.7181 0.0151083 11.1579C0.0797274 10.5977 0.33489 10.1419 0.780596 9.79053C1.22465 9.43915 1.72669 9.29495 2.28672 9.35959L2.82024 9.42258V9.4176Z" fill="white"/>
<path d="M25.2531 15.7158C25.8612 14.6037 26.5886 13.6026 27.4353 12.7126C28.2819 11.8225 29.2313 11.0485 30.2868 10.3905C31.3422 9.73249 32.4557 9.22034 33.6271 8.85239C34.7985 8.48444 36.018 8.27229 37.2839 8.21594C38.5497 8.15958 39.8222 8.27892 41.103 8.57726L45.5932 9.61978C46.3421 9.79381 47.0149 10.1038 47.6113 10.5479C48.2078 10.9938 48.6999 11.5242 49.0827 12.1391C49.4654 12.754 49.7255 13.4286 49.8631 14.1612C49.9989 14.8937 49.9807 15.6346 49.8067 16.3838C49.6328 17.1329 49.3229 17.8059 48.8789 18.4025C48.4332 19.0009 47.9029 19.4915 47.2882 19.8743C46.6735 20.2572 45.9992 20.5174 45.2668 20.655C44.5345 20.7909 43.7938 20.7727 43.0449 20.5986C42.296 20.4246 41.6233 20.1147 41.0268 19.6705C40.4287 19.2246 39.9382 18.6942 39.5555 18.0793C39.1727 17.4644 38.9126 16.7899 38.7751 16.0573C38.6376 15.3247 38.6574 14.5838 38.8314 13.8346L38.9474 13.3358C39.0137 13.0523 38.9723 12.7938 38.8248 12.5584C38.6773 12.3231 38.4636 12.1722 38.1803 12.1059C37.8969 12.0396 37.6385 12.0811 37.4032 12.2286C37.1679 12.3761 37.0171 12.5899 36.9508 12.8733L34.8665 21.855C34.7389 22.4036 34.434 22.8295 33.9535 23.1295C33.4713 23.4295 32.9577 23.5157 32.4076 23.3881L25.4238 21.7671C24.8754 21.6395 24.4495 21.3345 24.1513 20.8539C23.8514 20.3732 23.7652 19.8578 23.8928 19.3075C24.1894 18.0263 24.6417 16.8296 25.2515 15.7175L25.2531 15.7158Z" fill="white"/>
<path d="M51.9224 10.8927C52.2372 9.85017 52.7193 8.91538 53.3688 8.08998C54.0183 7.26457 54.8103 6.58171 55.7432 6.04139C56.676 5.50106 57.7016 5.16294 58.82 5.03035L66.9554 4.06241C68.0738 3.92981 69.1541 4.016 70.1963 4.32097C71.2385 4.62759 72.1713 5.10493 72.9965 5.75465C73.8216 6.40436 74.5043 7.19993 75.0461 8.14136C75.5879 9.08278 75.9242 10.1137 76.0584 11.2325C76.191 12.3512 76.1048 13.4286 75.7983 14.4612C75.4918 15.4954 75.0129 16.4252 74.3634 17.2506C73.7139 18.076 72.9186 18.7639 71.9791 19.3141C71.0397 19.8644 70.0091 20.2058 68.8907 20.3401L60.7553 21.308C59.6369 21.4406 58.5599 21.3495 57.526 21.0345C56.4921 20.7196 55.5609 20.2357 54.7374 19.586C53.9123 18.9362 53.2247 18.1456 52.6762 17.2125C52.1278 16.281 51.7865 15.2551 51.6523 14.1363C51.5197 13.0175 51.6092 11.9369 51.924 10.8927H51.9224ZM65.8254 17.002C66.1767 16.5562 66.3192 16.054 66.2529 15.4937L65.5272 9.38941C65.4609 8.82919 65.2041 8.37505 64.7584 8.02368C64.3127 7.6723 63.8106 7.52976 63.2506 7.59606C62.6906 7.66236 62.2366 7.91926 61.8853 8.36511C61.534 8.81096 61.3915 9.31316 61.4578 9.87338L62.1835 15.9777C62.2498 16.5379 62.5066 16.9921 62.9523 17.3434C63.3981 17.6948 63.9001 17.8374 64.4601 17.7694C65.0202 17.7031 65.4741 17.4462 65.8254 17.0004V17.002Z" fill="white"/>
<path d="M97.0597 5.22763C97.8252 5.30056 98.5327 5.51768 99.1839 5.879C99.835 6.24032 100.392 6.70109 100.854 7.25964C101.316 7.8182 101.663 8.45134 101.896 9.15907C102.128 9.86679 102.209 10.6043 102.136 11.3684L101.654 16.4684C101.581 17.2341 101.364 17.9418 101.003 18.5932C100.642 19.2446 100.181 19.8015 99.623 20.2639C99.0646 20.7263 98.4316 21.0727 97.7241 21.3064C97.0166 21.5401 96.2793 21.6197 95.5155 21.5484L78.181 19.9075C77.7552 19.8678 77.4089 19.6838 77.1405 19.3589C76.8721 19.0341 76.7561 18.6578 76.7975 18.2335C76.8373 17.8092 77.0212 17.4612 77.3459 17.1927C77.6707 16.9242 78.0468 16.8081 78.471 16.8496L91.2158 18.0562C91.5041 18.0844 91.756 18.0081 91.9697 17.8324C92.1835 17.6551 92.3044 17.423 92.3309 17.133C92.3591 16.8446 92.2829 16.5927 92.1073 16.3789C91.93 16.165 91.698 16.0441 91.408 16.0175L82.7408 15.1971C81.9753 15.1242 81.2678 14.9071 80.6166 14.5457C79.9655 14.1844 79.4088 13.7236 78.9465 13.1651C78.4842 12.6065 78.1379 11.9734 77.9043 11.2657C77.6707 10.5579 77.5911 9.82038 77.6624 9.0563C77.7353 8.29057 77.9524 7.58284 78.3136 6.93147C78.6748 6.2801 79.1354 5.7232 79.6938 5.26078C80.2521 4.79835 80.8851 4.45195 81.5926 4.21825C82.3001 3.98455 83.0374 3.90499 83.8012 3.97626L97.0564 5.23094L97.0597 5.22763ZM90.1703 12.8087C90.8845 12.8767 91.5108 12.6877 92.0509 12.2402C92.5894 11.7944 92.8943 11.2143 92.9622 10.4999C93.0301 9.78558 92.8396 9.15907 92.3939 8.61874C91.9482 8.08008 91.3683 7.77511 90.6542 7.70715C89.94 7.6392 89.3137 7.8298 88.7736 8.27565C88.2334 8.7215 87.9302 9.30161 87.8623 10.016C87.7943 10.7303 87.9832 11.3568 88.4306 11.8972C88.8763 12.4375 89.4562 12.7408 90.1703 12.8087Z" fill="white"/>
<path d="M13.8435 39.4188C13.8816 39.9807 13.7126 40.4763 13.3398 40.9039C12.967 41.3315 12.4981 41.5636 11.9364 41.6017L4.78357 42.0823C4.22188 42.1205 3.72647 41.9531 3.29899 41.5785C2.87151 41.2056 2.63954 40.7365 2.60143 40.1746L1.7763 27.908C1.73819 27.3461 1.90553 26.8505 2.27999 26.4229C2.6528 25.9953 3.1217 25.7632 3.68339 25.7251L11.3482 25.2097C11.774 25.1815 12.1452 25.3058 12.4633 25.5842C12.7814 25.8627 12.9554 26.2141 12.9836 26.64C13.0117 27.066 13.1857 27.419 13.5038 27.6958C13.822 27.9743 14.1931 28.0986 14.6189 28.0704L15.1044 28.0372C16.6536 27.9328 18.1349 28.1284 19.5449 28.624C20.9549 29.1195 22.2059 29.8438 23.2961 30.7969C24.3864 31.7499 25.2711 32.8935 25.9521 34.2244C26.6315 35.557 27.0241 36.9973 27.1285 38.547C27.165 39.0923 26.996 39.5796 26.6232 40.0056C26.2504 40.4332 25.7897 40.6652 25.2463 40.7017L18.0669 41.1857C17.5052 41.2238 17.0098 41.0564 16.5824 40.6818C16.1549 40.3089 15.9229 39.8398 15.8848 39.278L15.4026 32.1228C15.3828 31.8328 15.2684 31.5974 15.0597 31.4151C14.8509 31.2328 14.6007 31.1499 14.3124 31.1698C14.0224 31.1897 13.7872 31.304 13.6032 31.5129C13.421 31.7217 13.3398 31.972 13.358 32.2604L13.8402 39.4155L13.8435 39.4188Z" fill="white"/>
<path d="M29.1152 32.5538C29.4383 31.5129 29.9271 30.5831 30.5832 29.7626C31.2393 28.9422 32.0363 28.266 32.9725 27.7323C33.9086 27.1986 34.9375 26.8688 36.0576 26.7445L44.2013 25.8395C45.3213 25.7152 46.4 25.8097 47.4405 26.1246C48.4794 26.4378 49.4106 26.9235 50.2291 27.5798C51.0492 28.2361 51.7269 29.0367 52.2604 29.9831C52.794 30.9295 53.1237 31.9621 53.2479 33.0825C53.3722 34.2029 53.2761 35.2786 52.963 36.3095C52.6481 37.3404 52.1627 38.2669 51.5065 39.0874C50.8504 39.9078 50.0501 40.589 49.1057 41.1327C48.1613 41.6763 47.129 42.0094 46.0089 42.1337L37.8653 43.0387C36.7452 43.163 35.6699 43.0636 34.6376 42.7404C33.6054 42.4172 32.6792 41.9266 31.859 41.2702C31.0389 40.6139 30.3579 39.8183 29.8161 38.8819C29.2743 37.9454 28.9412 36.9178 28.817 35.7974C28.6927 34.6769 28.7921 33.5963 29.1135 32.5554L29.1152 32.5538ZM42.9702 38.7725C43.3248 38.3299 43.4706 37.8277 43.4093 37.2675L42.7316 31.1582C42.6686 30.598 42.4168 30.1405 41.9744 29.7858C41.532 29.4312 41.03 29.2853 40.4699 29.3466C39.9099 29.4096 39.4526 29.6615 39.098 30.1041C38.7434 30.5466 38.5976 31.0488 38.6589 31.609L39.3366 37.7183C39.3996 38.2785 39.6514 38.736 40.0938 39.0907C40.5362 39.4454 41.0382 39.5912 41.5983 39.5299C42.1583 39.4669 42.6156 39.215 42.9702 38.7725Z" fill="white"/>
<path d="M55.9023 27.7969C56.2867 27.1588 56.7672 26.6185 57.3404 26.1776C57.9154 25.7367 58.5599 25.4119 59.2757 25.203C59.9915 24.9959 60.7305 24.9412 61.4926 25.0406C62.2548 25.1401 62.954 25.382 63.5919 25.7682C64.2298 26.1527 64.77 26.6334 65.2107 27.2069C65.6515 27.782 65.9762 28.4267 66.185 29.1428C66.3921 29.8588 66.4468 30.598 66.3473 31.3604L65.6167 36.9476C65.5785 37.236 65.6448 37.4896 65.8138 37.71C65.9828 37.9305 66.2115 38.0598 66.4998 38.0962C66.7881 38.1343 67.0416 38.0681 67.262 37.899C67.4823 37.7299 67.6116 37.5012 67.648 37.2128L68.3787 31.6256C68.4781 30.8632 68.72 30.1637 69.1061 29.5256C69.4905 28.8875 69.971 28.3472 70.5443 27.9063C71.1192 27.4654 71.7638 27.1406 72.4795 26.9317C73.1953 26.7246 73.9343 26.6699 74.6965 26.7693C75.4586 26.8688 76.1579 27.1107 76.7958 27.4969C77.4337 27.8814 77.9738 28.3621 78.4146 28.9356C78.8553 29.5107 79.18 30.1555 79.3888 30.8715C79.5959 31.5875 79.6506 32.3267 79.5512 33.0891L78.4212 41.7244C78.3483 42.2829 78.0865 42.7354 77.6375 43.0818C77.1868 43.4282 76.6831 43.5641 76.1247 43.4912L64.4469 41.963C62.9739 41.7708 61.6268 41.31 60.4057 40.5824C59.1846 39.8548 58.154 38.9448 57.3156 37.8526C56.4772 36.762 55.8625 35.5322 55.4748 34.1631C55.0871 32.7941 54.9876 31.3737 55.1798 29.9019C55.2793 29.1394 55.5212 28.44 55.9072 27.8019L55.9023 27.7969Z" fill="white"/>
<path d="M105.969 37.4863C105.727 38.1923 105.374 38.8205 104.905 39.3741C104.438 39.9277 103.874 40.3818 103.22 40.7348C102.564 41.0895 101.853 41.2984 101.088 41.3614L83.7365 42.805C83.3106 42.8398 82.9362 42.7221 82.6147 42.4486C82.2916 42.1752 82.1127 41.8271 82.0779 41.4011C82.0431 40.9768 82.1607 40.6023 82.4341 40.2791C82.7075 39.9575 83.0555 39.7768 83.4813 39.742L94.1981 38.8503C94.4881 38.8271 94.7217 38.7078 94.9007 38.4956C95.0796 38.2835 95.1575 38.0332 95.1343 37.7432C95.1094 37.4531 94.9918 37.2194 94.7797 37.0404C94.5676 36.8614 94.3174 36.7835 94.0275 36.8067L87.3932 37.3586C86.6278 37.4216 85.8921 37.3338 85.1879 37.0918C84.4821 36.8515 83.8541 36.4968 83.3007 36.0277C82.7473 35.5603 82.2933 34.9985 81.9404 34.3421C81.5858 33.6858 81.377 32.9747 81.3124 32.209C81.2495 31.4433 81.3373 30.7074 81.5792 30.0029C81.8194 29.2985 82.174 28.6687 82.6429 28.1151C83.1102 27.5615 83.6718 27.1091 84.328 26.7544C84.9841 26.3997 85.6949 26.1908 86.4604 26.1279L103.811 24.6842C104.237 24.6494 104.61 24.7671 104.933 25.0406C105.255 25.3141 105.435 25.6638 105.47 26.0881C105.505 26.514 105.387 26.8886 105.114 27.2102C104.84 27.5334 104.491 27.7124 104.067 27.7472L92.3291 28.7234C92.0392 28.7483 91.8056 28.8659 91.6266 29.0781C91.4477 29.2903 91.3698 29.5405 91.393 29.8306C91.4179 30.1206 91.5355 30.3543 91.7476 30.5333C91.9597 30.7123 92.2098 30.7902 92.4998 30.767L100.155 30.1306C100.92 30.0676 101.656 30.1554 102.36 30.3974C103.064 30.6394 103.694 30.9924 104.247 31.4615C104.801 31.9289 105.253 32.4924 105.608 33.1471C105.962 33.8034 106.171 34.5145 106.234 35.2802C106.297 36.046 106.209 36.7819 105.967 37.4863H105.969Z" fill="white"/>
<path d="M128.493 27.9262C129.245 28.0803 129.926 28.3704 130.536 28.7996C131.146 29.2289 131.649 29.746 132.049 30.3494C132.448 30.9543 132.726 31.6206 132.882 32.3499C133.038 33.0791 133.039 33.82 132.887 34.5725C132.733 35.325 132.443 36.0062 132.014 36.6161C131.585 37.2261 131.068 37.7299 130.465 38.1294C129.861 38.5288 129.194 38.8072 128.465 38.963C127.736 39.1188 126.995 39.1205 126.243 38.968L118.715 37.4332C118.43 37.3752 118.174 37.4233 117.942 37.5758C117.71 37.7283 117.566 37.9487 117.508 38.2321C117.45 38.5172 117.498 38.7741 117.65 39.0061C117.803 39.2382 118.021 39.3824 118.306 39.4404L129.847 41.7923C130.264 41.8768 130.59 42.0973 130.824 42.4486C131.058 42.8017 131.131 43.1862 131.046 43.6039C130.962 44.0215 130.741 44.3481 130.39 44.5818C130.037 44.8155 129.653 44.8884 129.233 44.8038L112.172 41.3265C111.42 41.1724 110.737 40.8824 110.129 40.4531C109.52 40.0238 109.016 39.5067 108.617 38.9034C108.217 38.2984 107.939 37.6321 107.783 36.9029C107.626 36.1736 107.626 35.4327 107.778 34.6802L107.881 34.178C108.164 32.7891 108.693 31.5427 109.467 30.4372C110.24 29.3317 111.177 28.4151 112.273 27.6892C113.37 26.9632 114.583 26.461 115.912 26.1826C117.241 25.9041 118.59 25.9058 119.961 26.1842L128.491 27.9229L128.493 27.9262ZM122.765 34.3653C123.348 33.9791 123.713 33.4338 123.855 32.7311C123.998 32.0283 123.877 31.3852 123.491 30.8002C123.105 30.2168 122.559 29.8521 121.857 29.7096C121.154 29.567 120.512 29.688 119.927 30.0742C119.342 30.4604 118.979 31.0057 118.836 31.7084C118.694 32.4112 118.815 33.0543 119.201 33.6394C119.587 34.2244 120.132 34.5874 120.835 34.73C121.537 34.8725 122.18 34.7515 122.765 34.3653Z" fill="white"/>
</svg>
