<svg width="104" height="56" viewBox="0 0 104 56" fill="none" xmlns="http://www.w3.org/2000/svg">
<path d="M26.6416 1.20857L24.3953 11.473C24.3311 11.7665 24.3447 12.0741 24.4344 12.3594L27.1622 21.0309C27.482 22.0473 28.6109 22.4209 29.3862 21.767L35.7205 16.4244C36.3452 15.8975 36.4671 14.9142 35.9936 14.222L33.7133 10.8891C33.3628 10.3769 33.3288 9.68183 33.6272 9.13099L35.9393 4.8631C36.4072 3.99937 36.0318 2.88033 35.1664 2.55934L28.491 0.0830853C27.6941 -0.212505 26.8386 0.308118 26.6416 1.20857Z" fill="#363849"/>
<path d="M17.5545 6.08516C18.2404 5.36162 19.3639 5.56034 19.8097 6.48404L20.6 8.1216C20.7101 8.34965 20.7676 8.60397 20.7676 8.86224L20.7675 20.8748C20.7675 21.5679 20.3569 22.1798 19.7554 22.3831L18.2364 22.8965C17.3879 23.1833 16.5094 22.5597 16.3959 21.59L14.9998 9.66803C14.9416 9.17108 15.1012 8.67323 15.4297 8.32667L17.5545 6.08516Z" fill="#363849"/>
<path d="M0 29.5645V10.2017C0 9.42782 0.50952 8.76818 1.20296 8.6443L3.53674 8.2274C4.32246 8.08704 5.06134 8.67937 5.18173 9.54615L6.40719 18.3684C6.49988 19.0357 6.96769 19.5641 7.57093 19.6829L13.0411 20.76C13.9715 20.9432 14.4885 22.0514 14.0822 22.9915L11.8423 28.1732C11.6494 28.6195 11.2777 28.9404 10.8382 29.0402L1.72128 31.1097C0.832742 31.3114 0 30.5638 0 29.5645Z" fill="#363849"/>
<path d="M67.5327 51.9712L56.9789 50.1035C56.0975 49.9476 55.559 48.951 55.8547 48.0232L57.719 42.1729C57.8113 41.8834 57.8249 41.5705 57.7582 41.2726L54.7915 28.0174C54.5076 26.7489 55.6662 25.6717 56.7537 26.1931L61.3397 28.392C61.826 28.6251 62.1555 29.1351 62.1962 29.7175L63.152 43.3953C63.2095 44.2172 63.8317 44.8519 64.58 44.8519H69.4819C70.5346 44.8519 71.2276 46.061 70.775 47.108L69.0529 51.0918C68.7796 51.7242 68.1604 52.0823 67.5327 51.9712Z" fill="#363849"/>
<path d="M34.8147 37.2674C34.8147 36.1847 33.8473 35.4237 32.9176 35.7751L31.3746 36.3584C30.8499 36.5567 30.4763 37.071 30.4158 37.6785L28.7642 54.25C28.6663 55.2322 29.4029 56.0708 30.2973 55.9953L36.0111 55.513C36.9963 55.4298 37.6109 54.2987 37.2121 53.3029L34.9366 47.6218C34.8562 47.4211 34.8147 47.2042 34.8147 46.9849V37.2674Z" fill="#363849"/>
<path d="M41.4753 4.45027L39.384 19.7421C39.1832 21.2106 40.7674 22.1436 41.7643 21.1439L43.8756 19.027C44.4076 18.4935 45.2164 18.4776 45.7654 18.9899L49.1808 22.1771C50.2496 23.1744 51.8486 22.0629 51.4914 20.5709L49.9973 14.3294C49.781 13.4259 50.321 12.5143 51.1589 12.3687L52.0292 12.2173C52.7186 12.0975 53.2292 11.4477 53.2381 10.6789L53.3248 3.14044C53.336 2.16298 52.546 1.4096 51.6694 1.56199L42.6683 3.12686C42.0512 3.23415 41.5684 3.76972 41.4753 4.45027Z" fill="#363849"/>
<path d="M72.3456 23.6076L74.2653 8.91573C74.3458 8.29914 74.7482 7.79249 75.2923 7.62258L80.5963 5.96616C81.7485 5.60633 82.7689 6.87064 82.3097 8.0891L79.7063 14.9962C79.5466 15.4198 79.5622 15.899 79.749 16.309L83.9623 25.5562C84.596 26.947 83.2128 28.4016 81.981 27.6396L77.3219 24.7574C76.9742 24.5423 76.5608 24.4967 76.1812 24.6314L74.2026 25.334C73.1946 25.6919 72.1948 24.7624 72.3456 23.6076Z" fill="#363849"/>
<path d="M60.8731 5.43002L54.8878 17.7076C54.2559 19.0037 55.436 20.463 56.6775 19.9207L60.7652 18.135C61.3726 17.8696 62.066 18.0908 62.4507 18.6725L66.3692 24.5973C67.2311 25.9005 69.1032 25.1082 68.9512 23.5045L67.742 10.7385C67.7086 10.3854 67.568 10.055 67.343 9.80083L63.1604 5.07507C62.4849 4.31185 61.3309 4.49092 60.8731 5.43002Z" fill="#363849"/>
<path d="M103.28 16.0316L93.4282 34.4809C93.0735 35.1452 92.3348 35.4299 91.6814 35.1542L90.0863 34.4811C89.4131 34.197 89.0365 33.406 89.2071 32.6344L90.8295 25.2949C90.9537 24.7331 90.7889 24.1414 90.4001 23.7529L84.3988 17.7579C83.8578 17.2175 83.7726 16.3153 84.2009 15.6637L86.8168 11.6848C87.344 10.8829 88.4035 10.8079 89.0196 11.5288L92.6066 15.726C93.1261 16.334 93.9857 16.3907 94.5675 15.8555L100.632 10.2759C101.492 9.48495 102.806 10.0383 102.968 11.2593L103.463 15.004C103.51 15.3594 103.446 15.7219 103.28 16.0316Z" fill="#363849"/>
<path d="M21.9497 28.3615L14.2672 32.1146C13.7802 32.3526 13.4533 32.8686 13.4187 33.4543L12.5293 48.4921C12.5098 48.8223 12.585 49.1509 12.7443 49.4314L13.352 50.5016C13.964 51.5795 15.4228 51.4579 15.8808 50.2909L17.7246 45.5923C18.0739 44.7025 19.0622 44.3668 19.8056 44.8855L21.4485 46.0318C22.1379 46.5128 23.0523 46.263 23.4578 45.4828L24.8141 42.8732C25.2282 42.0763 24.9395 41.0596 24.1868 40.6648L22.6257 39.846C21.5785 39.2967 21.5273 37.6757 22.5374 37.0476L24.9261 35.5621C25.5609 35.1672 25.8253 34.3101 25.5401 33.5709L23.8484 29.1866C23.5355 28.3759 22.6807 28.0044 21.9497 28.3615Z" fill="#363849"/>
<path d="M44.3424 28.1682L38.7489 38.3977C38.4785 38.8921 38.4748 39.5096 38.7392 40.0079L44.3559 50.5935C44.8342 51.495 45.9613 51.6452 46.6209 50.8953L48.4161 48.8546C48.9077 48.2957 48.956 47.4255 48.5299 46.8048L45.6217 42.5695C44.9975 41.6604 45.4274 40.3445 46.4343 40.0823L51.4151 38.7849C52.2021 38.5799 52.679 37.6982 52.4682 36.8382L50.4416 28.571C50.2729 27.8827 49.7061 27.4045 49.0589 27.4045H45.5692C45.067 27.4045 44.6015 27.6943 44.3424 28.1682Z" fill="#363849"/>
<path d="M73.9549 41.1198L70.4633 32.6737C69.9241 31.3694 71.1155 30.0126 72.3168 30.5631L85.4044 36.5604C85.9284 36.8005 86.2742 37.3588 86.2862 37.9839L86.401 43.9798C86.4117 44.5414 86.1506 45.0669 85.7155 45.3596L76.0562 51.857C75.0875 52.5086 73.8484 51.7192 73.8781 50.4692L74.0832 41.8149C74.0889 41.5755 74.045 41.3378 73.9549 41.1198Z" fill="#363849"/>
<path d="M30.5087 25.7751C29.85 26.0593 29.4784 26.8308 29.6339 27.591L30.3476 31.0802C30.4948 31.7999 31.0751 32.3111 31.7448 32.3111H35.1522C35.8973 32.3111 36.518 31.6817 36.5795 30.8637L36.8677 27.0329C36.9039 26.5508 36.7373 26.0769 36.4157 25.7474L35.3436 24.6489C34.9405 24.2359 34.3583 24.114 33.8458 24.3351L30.5087 25.7751Z" fill="#363849"/>
</svg>
