<svg width="104" height="57" viewBox="0 0 104 57" fill="none" xmlns="http://www.w3.org/2000/svg">
<path d="M26.6416 1.57466L24.3953 11.8391C24.3311 12.1326 24.3447 12.4402 24.4344 12.7255L27.1622 21.397C27.482 22.4133 28.6109 22.787 29.3862 22.1331L35.7205 16.7905C36.3452 16.2636 36.4671 15.2802 35.9936 14.5881L33.7133 11.2552C33.3628 10.743 33.3288 10.0479 33.6272 9.49708L35.9393 5.22919C36.4072 4.36546 36.0318 3.24642 35.1664 2.92542L28.491 0.449174C27.6941 0.153584 26.8386 0.674207 26.6416 1.57466Z" fill="white"/>
<path d="M17.5545 6.45125C18.2404 5.72771 19.3639 5.92643 19.8097 6.85012L20.6 8.48769C20.7101 8.71574 20.7676 8.97006 20.7676 9.22833L20.7675 21.2409C20.7675 21.934 20.3569 22.5459 19.7554 22.7492L18.2364 23.2626C17.3879 23.5494 16.5094 22.9258 16.3959 21.9561L14.9998 10.0341C14.9416 9.53717 15.1012 9.03931 15.4297 8.69276L17.5545 6.45125Z" fill="white"/>
<path d="M0 29.9305V10.5678C0 9.79391 0.50952 9.13426 1.20296 9.01039L3.53674 8.59349C4.32246 8.45313 5.06134 9.04546 5.18173 9.91224L6.40719 18.7345C6.49988 19.4018 6.96769 19.9302 7.57093 20.049L13.0411 21.1261C13.9715 21.3093 14.4885 22.4175 14.0822 23.3575L11.8423 28.5393C11.6494 28.9856 11.2777 29.3065 10.8382 29.4063L1.72128 31.4758C0.832742 31.6775 0 30.9299 0 29.9305Z" fill="white"/>
<path d="M67.5327 52.3373L56.9789 50.4696C56.0975 50.3137 55.559 49.3171 55.8547 48.3893L57.719 42.539C57.8113 42.2495 57.8249 41.9366 57.7582 41.6387L54.7915 28.3835C54.5076 27.115 55.6662 26.0377 56.7537 26.5592L61.3397 28.7581C61.826 28.9912 62.1555 29.5012 62.1962 30.0836L63.152 43.7614C63.2095 44.5833 63.8317 45.218 64.58 45.218H69.4819C70.5346 45.218 71.2276 46.4271 70.775 47.4741L69.0529 51.4579C68.7796 52.0903 68.1604 52.4484 67.5327 52.3373Z" fill="white"/>
<path d="M34.8147 37.6335C34.8147 36.5508 33.8473 35.7898 32.9176 36.1412L31.3746 36.7245C30.8499 36.9228 30.4763 37.4371 30.4158 38.0446L28.7642 54.616C28.6663 55.5983 29.4029 56.4368 30.2973 56.3614L36.0111 55.8791C36.9963 55.7959 37.6109 54.6648 37.2121 53.669L34.9366 47.9879C34.8562 47.7872 34.8147 47.5703 34.8147 47.351V37.6335Z" fill="white"/>
<path d="M41.4753 4.81636L39.384 20.1082C39.1832 21.5767 40.7674 22.5096 41.7643 21.51L43.8756 19.3931C44.4076 18.8596 45.2164 18.8437 45.7654 19.356L49.1808 22.5432C50.2496 23.5405 51.8486 22.429 51.4914 20.937L49.9973 14.6955C49.781 13.7919 50.321 12.8804 51.1589 12.7347L52.0292 12.5834C52.7186 12.4636 53.2292 11.8138 53.2381 11.045L53.3248 3.50652C53.336 2.52907 52.546 1.77569 51.6694 1.92808L42.6683 3.49295C42.0512 3.60024 41.5684 4.13581 41.4753 4.81636Z" fill="white"/>
<path d="M72.3456 23.9736L74.2653 9.28182C74.3458 8.66523 74.7482 8.15858 75.2923 7.98867L80.5963 6.33225C81.7485 5.97241 82.7689 7.23673 82.3097 8.45519L79.7063 15.3623C79.5466 15.7859 79.5622 16.2651 79.749 16.6751L83.9623 25.9222C84.596 27.3131 83.2128 28.7677 81.981 28.0057L77.3219 25.1235C76.9742 24.9084 76.5608 24.8627 76.1812 24.9975L74.2026 25.7001C73.1946 26.058 72.1948 25.1285 72.3456 23.9736Z" fill="white"/>
<path d="M60.8731 5.7961L54.8878 18.0736C54.2559 19.3698 55.436 20.8291 56.6775 20.2867L60.7652 18.5011C61.3726 18.2357 62.066 18.4569 62.4507 19.0386L66.3692 24.9634C67.2311 26.2666 69.1032 25.4743 68.9512 23.8706L67.742 11.1046C67.7086 10.7515 67.568 10.4211 67.343 10.1669L63.1604 5.44116C62.4849 4.67794 61.3309 4.85701 60.8731 5.7961Z" fill="white"/>
<path d="M103.28 16.3976L93.4282 34.8469C93.0735 35.5113 92.3348 35.796 91.6814 35.5203L90.0863 34.8472C89.4131 34.5631 89.0365 33.7721 89.2071 33.0005L90.8295 25.661C90.9537 25.0991 90.7889 24.5074 90.4001 24.119L84.3988 18.124C83.8578 17.5836 83.7726 16.6814 84.2009 16.0298L86.8168 12.0509C87.344 11.249 88.4035 11.174 89.0196 11.8948L92.6066 16.0921C93.1261 16.7001 93.9857 16.7568 94.5675 16.2216L100.632 10.6419C101.492 9.85104 102.806 10.4044 102.968 11.6253L103.463 15.3701C103.51 15.7255 103.446 16.088 103.28 16.3976Z" fill="white"/>
<path d="M21.9497 28.7276L14.2672 32.4807C13.7802 32.7186 13.4533 33.2347 13.4187 33.8204L12.5293 48.8582C12.5098 49.1884 12.585 49.517 12.7443 49.7975L13.352 50.8677C13.964 51.9456 15.4228 51.824 15.8808 50.657L17.7246 45.9584C18.0739 45.0686 19.0622 44.7329 19.8056 45.2516L21.4485 46.3979C22.1379 46.8789 23.0523 46.6291 23.4578 45.8489L24.8141 43.2393C25.2282 42.4424 24.9395 41.4257 24.1868 41.0309L22.6257 40.2121C21.5785 39.6628 21.5273 38.0418 22.5374 37.4137L24.9261 35.9281C25.5609 35.5333 25.8253 34.6761 25.5401 33.937L23.8484 29.5527C23.5355 28.742 22.6807 28.3705 21.9497 28.7276Z" fill="white"/>
<path d="M44.3424 28.5343L38.7489 38.7637C38.4785 39.2581 38.4748 39.8757 38.7392 40.374L44.3559 50.9596C44.8342 51.8611 45.9613 52.0113 46.6209 51.2614L48.4161 49.2207C48.9077 48.6618 48.956 47.7916 48.5299 47.1709L45.6217 42.9355C44.9975 42.0265 45.4274 40.7106 46.4343 40.4483L51.4151 39.151C52.2021 38.946 52.679 38.0643 52.4682 37.2043L50.4416 28.937C50.2729 28.2488 49.7061 27.7706 49.0589 27.7706H45.5692C45.067 27.7706 44.6015 28.0604 44.3424 28.5343Z" fill="white"/>
<path d="M73.9549 41.4859L70.4633 33.0398C69.9241 31.7354 71.1155 30.3787 72.3168 30.9292L85.4044 36.9265C85.9284 37.1666 86.2742 37.7249 86.2862 38.35L86.401 44.3459C86.4117 44.9074 86.1506 45.433 85.7155 45.7257L76.0562 52.2231C75.0875 52.8747 73.8484 52.0853 73.8781 50.8353L74.0832 42.181C74.0889 41.9416 74.045 41.7039 73.9549 41.4859Z" fill="white"/>
<path d="M30.5087 26.1412C29.85 26.4254 29.4784 27.1968 29.6339 27.9571L30.3476 31.4463C30.4948 32.166 31.0751 32.6772 31.7448 32.6772H35.1522C35.8973 32.6772 36.518 32.0478 36.5795 31.2298L36.8677 27.399C36.9039 26.9168 36.7373 26.443 36.4157 26.1135L35.3436 25.015C34.9405 24.602 34.3583 24.4801 33.8458 24.7012L30.5087 26.1412Z" fill="white"/>
</svg>
