<svg width="208" height="8" viewBox="0 0 208 8" fill="none" xmlns="http://www.w3.org/2000/svg">
<path d="M204 7.99998C206.209 7.99998 208 6.20912 208 3.99998C208 1.79084 206.209 -1.76777e-05 204 -1.74846e-05C201.791 -1.72914e-05 200 1.79084 200 3.99998C200 6.20912 201.791 7.99998 204 7.99998ZM4 8C6.20914 8 8 6.20914 8 4C8 1.79086 6.20914 -1.93129e-07 4 0C1.79086 1.93129e-07 -1.93129e-07 1.79086 0 4C1.93129e-07 6.20914 1.79086 8 4 8ZM204 3.24998L4 3.25L4 4.75L204 4.74998L204 3.24998Z" fill="#B35900"/>
</svg>
