<svg width="358" height="8" viewBox="0 0 358 8" fill="none" xmlns="http://www.w3.org/2000/svg">
<path d="M354 7.99997C356.209 7.99997 358 6.20911 358 3.99997C358 1.79083 356.209 -3.07911e-05 354 -3.0598e-05C351.791 -3.04048e-05 350 1.79083 350 3.99997C350 6.20911 351.791 7.99997 354 7.99997ZM4 8C6.20914 8 8 6.20914 8 4C8 1.79086 6.20914 -1.93129e-07 4 0C1.79086 1.93129e-07 -1.93129e-07 1.79086 0 4C1.93129e-07 6.20914 1.79086 8 4 8ZM354 3.24997L4 3.25L4 4.75L354 4.74997L354 3.24997Z" fill="#B35900"/>
</svg>
