<svg width="160" height="161" viewBox="0 0 160 161" fill="none" xmlns="http://www.w3.org/2000/svg">
<g clip-path="url(#clip0_459_44202)">
<path d="M103.406 41.2091L72.5923 42.1261C71.3688 42.1625 70.1604 42.4073 69.0192 42.8501C64.5177 44.5966 59.404 43.1318 56.5099 39.2668L53.7266 35.5499C47.9118 27.7845 36.5797 26.939 29.6769 33.7555L8.38553 54.7808C5.03138 58.093 3.30852 62.7158 3.67677 67.4153L4.5658 78.7612C4.95745 83.7594 7.66928 88.285 11.892 90.9876L68.223 127.039C72.1312 129.541 76.9328 130.222 81.3826 128.907L144.034 110.391C151.753 108.11 156.576 100.45 155.296 92.5031L152.973 78.0819C151.792 70.7483 145.719 65.192 138.31 64.6661L129.984 64.0751C123.656 63.6259 118.454 58.9104 117.388 52.6563C116.233 45.8882 110.269 41.0048 103.406 41.2091Z" fill="#363849"/>
</g>
<defs>
<clipPath id="clip0_459_44202">
<rect width="160" height="160" fill="white" transform="translate(0 0.270508)"/>
</clipPath>
</defs>
</svg>
